# xmcd
#
# Track frame offsets: 
#        150
#        11205
#        22165
#        36853
#        49218
#        63103
#        75590
#        88510
#        99908
#        111505
#        123615
#        136883
#
# Disc length: 1992 seconds
#
# Revision: 0
# Processed by: cddbd v1.5.2PL0 Copyright (c) Steve Scherf et al.
# Submitted via: ExactAudioCopy v1.3
#
DISCID=9d07c60c
DTITLE=Charlie Singleton - Legendary Bop Rhythm and Blues Classics
DYEAR=1900
DGENRE=R&B
TTITLE0=Gone with the Wind
TTITLE1=Blow Mr. Singleton
TTITLE2=Cry
TTITLE3=Swinging Away
TTITLE4=Lonely Lover Blues
TTITLE5=Cat's Paw
TTITLE6=The Super Chief
TTITLE7=Jivin' with Dr. Jive
TTITLE8=Pony Express
TTITLE9=Broadway Beat
TTITLE10=Oozing Along
TTITLE11=The Boardwalk
EXTD=
EXTT0=
EXTT1=
EXTT2=
EXTT3=
EXTT4=
EXTT5=
EXTT6=
EXTT7=
EXTT8=
EXTT9=
EXTT10=
EXTT11=
PLAYORDER=
